<svg data-v-fde0c5aa="" xmlns="http://www.w3.org/2000/svg" viewBox="0 0 300 300" class="iconLeft"><!----><defs data-v-fde0c5aa=""><!----></defs><rect data-v-fde0c5aa="" fill="#DFE9EC" x="0" y="0" width="300px" height="300px" class="logo-background-square"></rect><defs data-v-fde0c5aa=""><!----></defs><g data-v-fde0c5aa="" id="0de94cd4-07fd-4b6e-bd62-f82031c631f1" fill="#12292A" transform="matrix(6.713046550750732,0,0,6.713046550750732,105.39853199947724,98.77945307953564)"><path d="M7.84 2.38L4.22 12.50L0.60 2.38L0.26 2.38L4.06 12.88L4.38 12.88L8.16 2.38ZM22.72 2.38L19.37 12.48L16.03 2.38L15.72 2.38L12.37 12.48L9.03 2.38L8.71 2.38L12.21 12.88L12.53 12.88L15.87 2.85L19.22 12.88L19.53 12.88L23.03 2.38Z"></path></g><defs data-v-fde0c5aa=""><linearGradient data-v-fde0c5aa="" gradientTransform="rotate(25)" id="1a8e0e52-eeaf-4fbb-bef2-db580c4a8b86" x1="0%" y1="0%" x2="100%" y2="0%"><stop data-v-fde0c5aa="" offset="0%" stop-color="#122663" stop-opacity="1"></stop><stop data-v-fde0c5aa="" offset="100%" stop-color="#5DD7AD" stop-opacity="1"></stop></linearGradient></defs><g data-v-fde0c5aa="" id="c1fc8b55-435e-4379-acb3-f5441cb0ecff" stroke="none" fill="url(#1a8e0e52-eeaf-4fbb-bef2-db580c4a8b86)" transform="matrix(3.304077625274658,0,0,3.304077625274658,14.205065165202235,97.13475741170251)"><path d="M18.396 26.495L7.807 15.905 18.432 5.28l.707.707-9.918 9.918 9.882 9.883z"></path><path d="M23.194 1v4.194H19V1h4.194m1-1H18v6.194h6.194V0zM23.194 26.806V31H19v-4.194h4.194m1-1H18V32h6.194v-6.194z"></path></g><!----></svg>