<svg data-v-423bf9ae="" xmlns="http://www.w3.org/2000/svg" viewBox="0 0 197 90" class="iconLeft"><!----><!----><!----><g data-v-423bf9ae="" id="a5bef462-534e-47e2-87b3-f955110866f0" fill="black" transform="matrix(5.714285850524902,0,0,5.714285850524902,64.60272216796875,1.3999983072280884)"><path d="M7.84 2.38L4.22 12.50L0.60 2.38L0.26 2.38L4.06 12.88L4.38 12.88L8.16 2.38ZM22.72 2.38L19.37 12.48L16.03 2.38L15.72 2.38L12.37 12.48L9.03 2.38L8.71 2.38L12.21 12.88L12.53 12.88L15.87 2.85L19.22 12.88L19.53 12.88L23.03 2.38Z"></path></g><!----><g data-v-423bf9ae="" id="698ec9f6-d668-41cb-8f1c-dd45ebff3dd5" transform="matrix(2.8125,0,0,2.8125,-21.194406509399414,0)" stroke="none" fill="black"><path d="M18.396 26.495L7.807 15.905 18.432 5.28l.707.707-9.918 9.918 9.882 9.883z"></path><path d="M23.194 1v4.194H19V1h4.194m1-1H18v6.194h6.194V0zM23.194 26.806V31H19v-4.194h4.194m1-1H18V32h6.194v-6.194z"></path></g><!----></svg>